<?xml version="1.0" encoding="utf-8"?>
<!-- Generator: Adobe Illustrator 25.1.0, SVG Export Plug-In . SVG Version: 6.00 Build 0)  -->
<svg version="1.1" id="Layer_1" xmlns="http://www.w3.org/2000/svg" xmlns:xlink="http://www.w3.org/1999/xlink" x="0px" y="0px"
	 viewBox="0 0 611.4 500" style="enable-background:new 0 0 611.4 500;" xml:space="preserve">
<style type="text/css">
	.st0{fill:#0097FF;}
	.st1{fill:#001627;}
</style>
<path class="st0" d="M304.63,108.63c-46.62,0-84.42,37.79-84.42,84.41c0,46.62,37.8,84.4,84.42,84.4c46.61,0,84.41-37.78,84.41-84.4
	C389.03,146.42,351.24,108.63,304.63,108.63z M368.18,225.12h-18.92v-46.18c0-2.23-1.81-4.04-4.04-4.04c-1.53,0-2.86,0.86-3.55,2.11
	c-0.31,0.57-1.53,2.86-1.89,3.55h0l-23.67,44.57h-22.94l-23.67-44.57c-0.37-0.69-1.58-2.98-1.89-3.55
	c-0.68-1.25-2.01-2.11-3.55-2.11c-2.23,0-4.04,1.81-4.04,4.04v46.18h-18.92v-49.11c0,0,0.41-20.68,20.15-20.68
	c15.91,0,22.45,12.62,24.43,16.35l18.98,35.72l18.98-35.72c1.98-3.73,8.52-16.35,24.42-16.35c19.73,0,20.15,20.68,20.15,20.68
	V225.12z M404.24,152.23c3.57-19.45,29.4-13.18,29.4-13.18S386.5,126.88,350,98.49c-22.4-17.43,7.1-33.97,7.1-33.97
	s-68.44,32.95-91.25,28.9c-20.19-3.59-15.21-28.39-15.21-28.39s-29.12,69.16-38.53,81.11c-18.76,23.83-36.5-5.58-36.5-5.58
	s30.81,67.25,31.43,84.16c0.95,26.21-23.49,23.02-31.43,22.29c10.63,3.55,55.83,14.44,85.17,41.58
	c17.04,15.77-8.11,32.95-8.11,32.95s66.41-33.46,88.72-29.91c22.31,3.55,17.74,29.4,17.74,29.4s22.81-74.52,47.66-88.2
	c14.16-7.8,26.87,12.67,26.87,12.67S399.68,177.07,404.24,152.23z M305.64,287.58c-52.22,0-94.55-42.32-94.55-94.54
	c0-52.22,42.33-94.55,94.55-94.55c52.22,0,94.55,42.33,94.55,94.55C400.19,245.25,357.86,287.58,305.64,287.58z"/>
<path class="st1" d="M214.26,380.25c-2.01-2.23-4.47-4.02-7.32-5.32c-2.86-1.29-6.18-1.94-9.89-1.94c-4.29,0-8.07,0.74-11.24,2.21
	c-3.18,1.47-5.88,3.49-8.02,6.01c-2.15,2.54-3.81,5.56-4.91,9.01c-1.12,3.49-1.68,7.28-1.68,11.27c0,4.06,0.55,7.85,1.63,11.28
	c1.06,3.35,2.72,6.27,4.93,8.68c2.2,2.39,5.1,4.31,8.62,5.68c3.57,1.39,7.94,2.09,12.99,2.09c6.45,0,12.35-0.93,17.58-2.76
	l-0.89-8.77c-2.95,0.75-6.07,1.51-7.71,1.65c-1.78,0.15-4.04,0.37-6.46,0.37c-6.05,0-10.53-1.24-13.68-3.78
	c-4.41-3.56-4.85-9.37-4.87-9.63c-0.03-0.53-0.13-2.11-0.13-2.11s1.53,0.04,2.08,0.04h34.79c0.06-0.5,0.11-1.09,0.17-1.73
	c0.11-1.29,0.16-2.63,0.16-4c0-3.61-0.53-7.04-1.57-10.22C217.79,385.21,216.26,382.5,214.26,380.25z M206.28,396.29h-20.21
	c-0.57,0-0.67-0.03-2.22-0.06l0.31-2.2c0.44-3.55,1.66-6.62,3.58-8.67c2.09-2.26,5.14-3.41,9.04-3.41c3.52,0,6.32,1.23,8.33,3.64
	c1.8,2.17,2.83,4.96,3.08,8.33l0.16,2.39C208.35,396.3,206.81,396.29,206.28,396.29z"/>
<path class="st1" d="M407.66,391.53c-1.43-1.56-3.21-2.9-5.28-3.97c-2.24-1.16-4.74-2.28-7.43-3.34l-6.58-2.52
	c-1.14-0.45-2.26-0.92-3.37-1.4c-1.23-0.54-2.36-1.21-3.36-2c-1.08-0.84-1.94-1.88-2.57-3.1c-0.64-1.23-0.96-2.75-0.96-4.51
	c0-2.14,0.41-3.95,1.22-5.34c0.82-1.41,1.9-2.49,3.19-3.24c1.2-0.68,2.56-1.16,4.04-1.41c3.56-0.61,7.02-0.38,9.79-0.07
	c1.66,0.19,3.18,0.44,4.54,0.75c1.37,0.31,2.68,0.71,3.87,1.17l1.46,0.57l2.53-9.02c-2.95-0.96-5.74-1.7-8.38-2.24
	c-3.13-0.64-6.55-0.95-10.16-0.95c-3.92,0-7.48,0.47-10.6,1.41c-3.05,0.92-5.7,2.28-7.84,4.07c-2.13,1.75-3.8,3.97-4.95,6.56
	c-1.18,2.62-1.78,5.7-1.78,9.18c0,2.86,0.35,5.33,1.05,7.33c0.69,1.97,1.66,3.68,2.9,5.08c1.26,1.42,2.81,2.66,4.61,3.7
	c1.88,1.08,4.05,2.1,6.46,3.01l6.7,2.53c1.33,0.52,2.61,1.05,3.95,1.64c1.37,0.61,2.64,1.37,3.75,2.28
	c1.17,0.95,2.14,2.14,2.88,3.51c0.75,1.43,1.14,3.19,1.14,5.23c0,4.15-1.6,7.29-4.77,9.35c-2.91,1.9-6.9,2.87-11.85,2.87
	c-3.2,0-6.26-0.32-9.09-0.98c-2.21-0.51-4.55-1.22-6.99-2.12l-2.45,10.16c1.29,0.49,2.49,0.89,3.64,1.24
	c1.64,0.49,3.3,0.91,4.94,1.22c1.65,0.31,3.41,0.55,5.24,0.68c1.84,0.14,3.98,0.21,6.36,0.21c4.7,0,8.91-0.6,12.48-1.78
	c3.53-1.16,6.53-2.79,8.92-4.84c2.35-2.02,4.17-4.47,5.42-7.29c1.24-2.83,1.88-6.04,1.88-9.51c0-3.37-0.41-6.22-1.22-8.48
	C410.19,394.98,409.07,393.07,407.66,391.53z"/>
<g>
	<path class="st1" d="M494.63,378.39c-1.58-1.34-3.55-2.46-5.83-3.32c-5.12-1.9-11.82-2.25-19.64-1.01c-2.54,0.4-5.11,1.01-7.67,1.8
		l2.16,8.02c4.01-1.2,7.76-1.78,11.29-1.78c1.95,0,3.72,0.12,5.28,0.35c1.73,0.25,3.23,0.76,4.45,1.5c1.31,0.79,2.33,1.89,3.07,3.26
		c0.72,1.35,1.09,3.08,1.09,5.12c0,0,0.15,1.15-0.27,1.66c-0.42,0.5-1.41,0.46-1.97,0.43l-0.32-0.03c-2.25-0.18-4.36-0.28-6.28-0.28
		c-2.81,0-5.64,0.31-8.43,0.9c-2.73,0.58-5.24,1.55-7.43,2.87c-2.13,1.28-3.9,3.02-5.25,5.15c-1.31,2.08-1.95,5.73-1.95,8.89
		c0,3.01,0.56,5.76,1.67,8.19c2.71,5.97,7.78,8.99,15.06,8.99c8.02,0,14.03-4.88,14.03-4.88s1.79-1.24,2.89-1.21
		c1.15,0.04,1.52,1.29,1.52,1.29l1.06,3.93h7.29v-33.58C500.44,387.15,498.48,381.68,494.63,378.39z M488.49,408.56
		c0,2.16-0.74,6.23-5.66,9.25c-1.7,1.04-5.21,1.7-7.5,1.7c-4.23,0-7.15-2.2-7.82-5.87c-0.85-4.73,2.64-9.11,6.39-9.91
		c1.26-0.27,2.7-0.52,4.7-0.52h6.98l2.87,0.02L488.49,408.56z"/>
</g>
<g>
	<g>
		<path class="st1" d="M148.62,353.35c-4.75,0-11.75,0.4-15.65,10.1l-18.64,47.84l-0.12,0.24l-0.12-0.24l-18.64-47.84
			c-3.9-9.7-10.9-10.1-15.65-10.1c-8.97,0.01-14.02,5.6-14.02,14.25v61.59h13.87v-56.78c0-1.05,0.73-1.94,1.73-2.15
			c1-0.19,1.99,0.38,2.36,1.36l22,55.96l-0.02,0.04h17l-0.02-0.04l22-55.96c0.37-0.99,1.36-1.55,2.36-1.36
			c1,0.21,1.73,1.1,1.73,2.15v56.78h13.87V367.6C162.64,358.94,157.59,353.35,148.62,353.35z"/>
	</g>
</g>
<path class="st1" d="M348.27,380.7c-2.24-2.37-4.98-4.25-8.13-5.58c-3.16-1.33-6.71-2.01-10.54-2.01c-3.75,0-7.26,0.68-10.42,2.01
	c-3.16,1.33-5.93,3.22-8.2,5.6c-2.29,2.38-4.11,5.33-5.42,8.74c-1.32,3.43-1.98,7.32-1.98,11.53c0,4.23,0.65,8.14,1.93,11.61
	c1.28,3.45,3.07,6.43,5.32,8.85c2.25,2.41,4.97,4.3,8.12,5.63c3.16,1.33,6.74,2,10.64,2c3.97,0,7.59-0.67,10.76-2
	c3.14-1.33,5.88-3.22,8.12-5.63c2.25-2.41,4-5.37,5.19-8.81c1.23-3.5,1.84-7.42,1.84-11.65c0-4.21-0.65-8.1-1.93-11.55
	C352.31,386.03,350.52,383.09,348.27,380.7z M340.09,414.26c-2.42,3.55-6.05,5.43-10.49,5.43c-4.44,0-8.08-1.88-10.53-5.42
	c-2.3-3.32-3.48-7.79-3.48-13.28c0-5.5,1.17-9.93,3.49-13.19c2.45-3.47,6.08-5.3,10.51-5.3c4.43,0,8.05,1.84,10.48,5.31
	c2.27,3.26,3.42,7.69,3.42,13.18C343.5,406.47,342.35,410.94,340.09,414.26z"/>
<path class="st1" d="M269.77,428.55v-54.02h7.28l1.32,2.3c0,0,0.55,0.96,2.28,0.34c1.74-0.62,7.21-4.72,20.2-1.68l-1.25,7.94
	c0,0-12.04-3.1-17.06,3.48c0,0-0.98,1.55-1.14,4.41v37.31L269.77,428.55z"/>
<path class="st1" d="M512.4,428.55v-54.02h7.29l1.32,2.3c0,0,0.54,0.96,2.28,0.34c1.74-0.62,7.2-4.72,20.2-1.68l-1.25,7.94
	c0,0-12.04-3.1-17.06,3.48c0,0-0.99,1.55-1.15,4.41v37.31L512.4,428.55z"/>
<g>
	<path class="st1" d="M257.88,419.9c-2.61,0.45-5.64,0.37-7.66-0.21c-1.37-0.39-2.53-1.13-3.45-2.2c-0.86-0.99-1.52-2.34-1.96-3.99
		c-0.41-1.54-0.61-3.54-0.61-5.95V385.5c0-0.57,0.02-2.04,0.02-2.04l2.05-0.03h11.23v-8.33h-11.23c-1.49-0.04-2.07-1.63-2.07-2.77
		v-13.7l-20.92,24.81h7c0.57,0,2.02-0.01,2.02-0.01l0.05,2.08v25.45c0,6.48,1.57,11.16,4.68,13.91c3.17,2.8,7.92,4.22,14.12,4.22
		c2.87,0,5.7-0.27,8.41-0.8l-0.88-8.52C258.42,419.81,258.15,419.86,257.88,419.9z"/>
</g>
<g>
	<path class="st1" d="M449.68,419.9c-2.62,0.45-5.64,0.37-7.67-0.21c-1.36-0.39-2.52-1.13-3.45-2.2c-0.86-0.99-1.52-2.34-1.96-3.99
		c-0.4-1.54-0.61-3.54-0.61-5.95V385.5c0-0.57,0.01-2.04,0.01-2.04l2.06-0.03h11.23v-8.33h-11.23c-1.49-0.04-2.07-1.63-2.07-2.77
		v-13.7l-20.92,24.81h7c0.56,0,2.02-0.01,2.02-0.01l0.05,2.08v25.45c0,6.48,1.58,11.16,4.68,13.91c3.17,2.8,7.92,4.22,14.12,4.22
		c2.88,0,5.69-0.27,8.41-0.8l-0.88-8.52C450.22,419.81,449.95,419.86,449.68,419.9z"/>
</g>
</svg>
